# xmcd
#
# Track frame offsets: 
#        150
#        11549
#        23413
#        31807
#        42214
#        53984
#        64484
#        76605
#        88300
#        100628
#        111456
#        124623
#        134695
#        148123
#        157380
#        171957
#        182661
#        195219
#        205125
#        218800
#        228041
#        238649
#        251418
#        261030
#        272477
#        282697
#        295047
#        308302
#
# Disc length: 4262 seconds
#
# Revision: 1
# Processed by: cddbd v1.5.2PL0 Copyright (c) Steve Scherf et al.
# Submitted via: ExactAudioCopyFreeDBPlugin 1.0
#
DISCID=8710a41c
DTITLE=Various Artist - Groove and Grind:  Rare Soul, '63 - '73
DYEAR=2015
DGENRE=Soul
TTITLE0=Willy McDougal - Don't Turn Away
TTITLE1=Winfield Parker - Mr. Clean (Part 1)
TTITLE2=Candi Staton - Now You've Got the Upper Hand
TTITLE3=Jay Wiggins - Forgive Then Forget
TTITLE4=Matt "Ti" Mattison and Minit Men - Don't Make Me Cry
TTITLE5=Little Genie Brooks - The James Brown Bougeloo
TTITLE6=Betty Wright - Mr. Lucky
TTITLE7=Sam Hutchins - I Can't Stop Crying
TTITLE8=Sam Dees - It's All Wrong (It's All Right)
TTITLE9=Lee Edward and His Continentals - (On The) R-e-b-o-u-n-d
TTITLE10=Buddy Grubbs - I'm Telling You
TTITLE11=Eddie Floyd - Hey Now
TTITLE12=Pat Brown - The Good Got to Suffer with the Bad
TTITLE13=Little Frankie Lee - I Gotta Come Back
TTITLE14=Nat Hall with The Mellow 3 - A Broken Hearted Clown
TTITLE15=Ella Washington - The Grass is Always Greener (On the Opposit
TTITLE15=e Side of the Fence)
TTITLE16=Billy Young - Still My Life Through
TTITLE17=Carla Thomas - Every Ounce of Strength
TTITLE18=Ruby Winters - I Don't Want to Hurt Nobody
TTITLE19=Al "TNT" Braggs - I'm a Good Man
TTITLE20=Sir Mack Rice - I Gotta Have My Baby's Love
TTITLE21=Elijah and The Ebonies - I Confess (ft Mary Sexton)
TTITLE22=Jackie Avery - Understanding
TTITLE23=Margie Joseph - Show Me
TTITLE24=Moses Dillard and The Dynamic Showmen - Pretty as a Picture
TTITLE25=Jerry and Eddie and The Tornados - Hurry Up Little Girl
TTITLE26=Roy Arlington - Everybody Makes a Mistake Sometimes
TTITLE27=Bobby Parker - Get Right
EXTD=
EXTT0=
EXTT1=
EXTT2=
EXTT3=
EXTT4=
EXTT5=
EXTT6=
EXTT7=
EXTT8=
EXTT9=
EXTT10=
EXTT11=
EXTT12=
EXTT13=
EXTT14=
EXTT15=
EXTT16=
EXTT17=
EXTT18=
EXTT19=
EXTT20=
EXTT21=
EXTT22=
EXTT23=
EXTT24=
EXTT25=
EXTT26=
EXTT27=
PLAYORDER=
